<?xml version="1.0" encoding="utf-8"?>
<!-- Generator: Adobe Illustrator 25.2.1, SVG Export Plug-In . SVG Version: 6.00 Build 0)  -->
<svg version="1.1" id="svg2" xmlns:svg="http://www.w3.org/2000/svg"
	 xmlns="http://www.w3.org/2000/svg" xmlns:xlink="http://www.w3.org/1999/xlink" x="0px" y="0px" viewBox="0 0 332.7 128.3"
	 style="enable-background:new 0 0 332.7 128.3;" xml:space="preserve">
<style type="text/css">
	.st0{fill:#1AB7EA;}
</style>
<path id="path4" class="st0" d="M74.4,44.3C74,51.5,69,61.4,59.2,74C49.1,87.2,40.5,93.8,33.5,93.8c-4.3,0-8-4-11-12
	c-2-7.3-4-14.7-6-22c-2.2-8-4.6-12-7.2-12c-0.6,0-2.5,1.2-5.8,3.5L0,46.7c3.7-3.2,7.3-6.5,10.9-9.7c4.9-4.2,8.6-6.5,11-6.7
	c5.8-0.6,9.4,3.4,10.7,11.9c1.4,9.1,2.4,14.8,3,17.1c1.7,7.6,3.5,11.4,5.5,11.4c1.6,0,3.9-2.5,7-7.4c3.1-4.9,4.8-8.7,5-11.2
	c0.4-4.2-1.2-6.4-5-6.4c-1.8,0-3.6,0.4-5.5,1.2c3.7-12,10.6-17.8,21-17.5C71.2,29.6,74.8,34.6,74.4,44.3"/>
<path id="path6" class="st0" d="M105.8,8.3c-0.1,2.8-1.5,5.4-4.2,8c-3,2.9-6.6,4.3-10.7,4.3c-6.3,0-9.4-2.8-9.2-8.3
	c0.1-2.9,1.8-5.7,5.1-8.3c3.3-2.7,6.9-4,10.9-4c2.3,0,4.3,0.9,5.9,2.7C105.2,4.6,105.9,6.4,105.8,8.3z M120.3,67.7
	c-3.1,5.9-7.4,11.2-12.9,16c-7.5,6.5-14.9,9.7-22.4,9.7c-3.5,0-6.1-1.1-7.9-3.3c-1.8-2.2-2.7-5.1-2.6-8.7c0.1-3.7,1.2-9.3,3.4-17
	c2.2-7.7,3.3-11.8,3.3-12.4c0-2.9-1-4.3-3-4.3c-0.7,0-2.6,1.2-5.7,3.5l-3.8-4.5c3.6-3.2,7.1-6.5,10.7-9.7c4.8-4.2,8.4-6.5,10.7-6.7
	c3.7-0.3,6.4,0.8,8.1,3.2c1.7,2.5,2.4,5.7,1.9,9.7c-1.4,6.8-3,15.4-4.7,25.8c-0.1,4.8,1.6,7.2,5.2,7.2c1.6,0,4.3-1.6,8.4-4.9
	c3.3-2.7,6.1-5.3,8.2-7.8L120.3,67.7"/>
<path id="path8" class="st0" d="M224.7,67.7c-3.1,5.9-7.4,11.2-12.9,16c-7.5,6.5-14.9,9.7-22.4,9.7c-7.2,0-10.8-4-10.5-12
	c0.1-3.6,0.8-7.8,2.1-12.9c1.3-5,2-8.9,2.1-11.7c0.1-4.2-1.2-6.3-3.9-6.3c-2.9,0-6.4,3.5-10.4,10.4c-4.2,7.2-6.5,14.3-6.9,21.1
	c-0.2,4.8,0.2,8.5,1.4,11c-7.8,0.2-13.2-1.1-16.3-3.8c-2.8-2.4-4.1-6.5-3.8-12.2c0.1-3.6,0.7-7.1,1.6-10.7c1-3.6,1.5-6.7,1.6-9.5
	c0.2-4.1-1.3-6.2-4.5-6.2c-2.8,0-5.8,3.2-9,9.5c-3.2,6.3-5,13-5.4,19.9c-0.2,6.2,0.2,10.6,1.2,13c-7.6,0.2-13.1-1.4-16.3-4.8
	c-2.7-2.9-3.9-7.3-3.7-13.2c0.1-2.9,0.6-6.9,1.5-12.1c0.9-5.2,1.4-9.2,1.5-12.1c0.2-2-0.3-3-1.5-3c-0.7,0-2.6,1.1-5.7,3.4l-4-4.5
	c0.6-0.4,4.1-3.7,10.5-9.7c4.7-4.3,7.9-6.6,9.5-6.7c2.9-0.2,5.2,1,7,3.6c1.8,2.6,2.7,5.7,2.7,9.1c0,1.1-0.1,2.2-0.3,3.2
	c1.7-2.6,3.6-4.8,5.8-6.7c5.1-4.4,10.9-7,17.2-7.5c5.5-0.4,9.4,0.8,11.7,3.8c1.9,2.4,2.8,6,2.7,10.5c0.8-0.7,1.6-1.4,2.5-2.2
	c2.6-3,5.1-5.4,7.5-7.2c4.1-3,8.4-4.7,12.9-5c5.3-0.4,9.2,0.8,11.5,3.8c2,2.4,2.9,5.9,2.7,10.5c-0.1,3.1-0.9,7.6-2.3,13.6
	c-1.4,5.9-2.1,9.3-2.1,10.2c-0.1,2.3,0.1,3.9,0.7,4.8c0.6,0.9,1.9,1.3,4,1.3c1.6,0,4.3-1.6,8.4-4.9c3.3-2.7,6.1-5.3,8.2-7.7
	L224.7,67.7"/>
<path id="path10" class="st0" d="M249.4,50.1c0.1-3-1.1-4.5-3.7-4.5c-3.3,0-6.7,2.3-10.2,6.9c-3.4,4.6-5.2,9-5.3,13.2
	c-0.1,0-0.1,0.7,0,2.2c5.4-2,10.2-5,14.2-9.1C247.6,55.2,249.3,52.3,249.4,50.1z M287.3,67.6c-3.2,5.3-9.6,10.7-19,16
	c-11.8,6.8-23.8,10.2-35.9,10.2c-9,0-15.5-3-19.4-9c-2.8-4.1-4.1-9-4-14.7c0.1-9,4.1-17.6,12-25.7c8.7-8.9,18.9-13.4,30.7-13.4
	c10.9,0,16.7,4.4,17.4,13.3c0.4,5.7-2.7,11.5-9.4,17.5c-7.1,6.6-16.1,10.7-26.9,12.5c2,2.8,5,4.2,9,4.2c8,0,16.8-2,26.2-6.1
	c6.8-2.9,12.1-5.8,16-8.9L287.3,67.6"/>
<path id="path12" class="st0" d="M313.8,55.7c0.1-3-0.3-5.8-1.3-8.3c-0.9-2.5-2.3-3.8-4.1-3.8c-5.7,0-10.4,3.1-14,9.2
	c-3.1,5-4.8,10.4-5,16.1c-0.1,2.8,0.4,5.3,1.5,7.4c1.2,2.5,2.9,3.7,5.2,3.7c5,0,9.3-3,12.9-8.9C312,66.2,313.6,61.1,313.8,55.7z
	 M332.7,56.4c-0.4,10.2-4.2,19.1-11.4,26.5s-16,11.2-26.6,11.2c-8.8,0-15.5-2.8-20-8.5c-3.3-4.2-5.2-9.5-5.5-15.8
	c-0.6-9.6,2.9-18.4,10.4-26.4c8-8.9,18.1-13.3,30.2-13.3c7.8,0,13.7,2.6,17.7,7.8C331.3,42.6,333,48.8,332.7,56.4"/>
<g>
	<path d="M103.3,127.1c-0.1-0.1-0.2-0.3-0.2-0.5v-16.8h-5.5c-0.2,0-0.3-0.1-0.5-0.2c-0.1-0.1-0.2-0.3-0.2-0.5V108
		c0-0.2,0.1-0.4,0.2-0.5c0.1-0.1,0.3-0.2,0.5-0.2h13.8c0.2,0,0.4,0.1,0.5,0.2c0.1,0.1,0.2,0.3,0.2,0.5v1.2c0,0.2-0.1,0.3-0.2,0.5
		c-0.1,0.1-0.3,0.2-0.5,0.2h-5.5v16.8c0,0.2-0.1,0.3-0.2,0.5c-0.1,0.1-0.3,0.2-0.5,0.2h-1.5C103.5,127.3,103.4,127.3,103.3,127.1z"
		/>
	<path d="M116.3,125.7c-1.4-1.3-2.1-3.3-2.2-5.9c0-0.6,0-1.4,0-2.4s0-1.9,0-2.4c0.1-2.6,0.8-4.5,2.2-5.9c1.4-1.3,3.3-2,5.7-2
		c2.4,0,4.3,0.7,5.7,2s2.2,3.3,2.2,5.9c0,1.1,0.1,1.9,0.1,2.4c0,0.5,0,1.3-0.1,2.4c-0.1,2.6-0.8,4.6-2.2,5.9c-1.4,1.3-3.3,2-5.8,2
		C119.6,127.6,117.6,127,116.3,125.7z M125.7,123.8c0.9-0.9,1.4-2.3,1.5-4.2c0-1.1,0.1-1.9,0.1-2.3c0-0.4,0-1.2-0.1-2.3
		c-0.1-1.9-0.6-3.3-1.5-4.2c-0.9-0.9-2.1-1.4-3.6-1.4c-1.5,0-2.7,0.5-3.6,1.4c-0.9,0.9-1.4,2.3-1.5,4.2c0,0.6,0,1.3,0,2.3
		c0,1,0,1.7,0,2.3c0.1,1.9,0.6,3.3,1.5,4.2c0.9,0.9,2.1,1.4,3.6,1.4C123.6,125.2,124.8,124.7,125.7,123.8z"/>
	<path d="M143.6,126.9c-1.2-0.5-2-1.2-2.6-2c-0.6-0.8-0.9-1.7-1-2.6c0-0.2,0.1-0.3,0.2-0.4s0.3-0.2,0.4-0.2h1.5
		c0.4,0,0.6,0.2,0.7,0.6c0.2,0.8,0.7,1.5,1.5,2.1c0.8,0.6,2,0.9,3.4,0.9c1.6,0,2.8-0.3,3.6-0.8s1.2-1.4,1.2-2.4
		c0-0.6-0.2-1.2-0.6-1.6c-0.4-0.4-1-0.8-1.7-1.1c-0.8-0.3-1.9-0.7-3.4-1.1c-1.5-0.4-2.7-0.9-3.6-1.3s-1.5-1.1-2-1.8
		c-0.4-0.7-0.7-1.6-0.7-2.7c0-1,0.3-2,0.8-2.8c0.6-0.8,1.4-1.5,2.4-1.9c1-0.5,2.3-0.7,3.8-0.7c1.5,0,2.8,0.3,3.8,0.8
		c1.1,0.5,1.9,1.2,2.4,2c0.6,0.8,0.8,1.6,0.9,2.4c0,0.2-0.1,0.3-0.2,0.4c-0.1,0.1-0.3,0.2-0.4,0.2h-1.5c-0.4,0-0.6-0.2-0.7-0.5
		c-0.1-0.8-0.6-1.5-1.3-2c-0.8-0.5-1.8-0.8-2.9-0.8c-1.3,0-2.3,0.2-3.1,0.7s-1.1,1.2-1.1,2.2c0,0.6,0.2,1.2,0.5,1.6
		c0.4,0.4,0.9,0.8,1.6,1.1c0.7,0.3,1.8,0.7,3.2,1.1c1.6,0.4,2.9,0.9,3.8,1.4c0.9,0.5,1.6,1,2.1,1.7c0.5,0.7,0.7,1.6,0.7,2.6
		c0,1.8-0.7,3.2-2.1,4.2s-3.2,1.5-5.6,1.5C146.1,127.6,144.7,127.4,143.6,126.9z"/>
	<path d="M160.4,125.6c-1.3-1.4-2-3.3-2.1-5.7c0-0.5,0-1.4,0-2.5c0-1.2,0-2,0-2.6c0.1-2.4,0.8-4.3,2.1-5.7c1.3-1.4,3.3-2.1,5.8-2.1
		c1.7,0,3.1,0.3,4.3,0.9c1.2,0.6,2.1,1.4,2.7,2.4c0.6,1,0.9,2,1,3.1v0.1c0,0.2-0.1,0.3-0.2,0.4c-0.1,0.1-0.3,0.2-0.4,0.2h-1.6
		c-0.4,0-0.6-0.2-0.7-0.7c-0.3-1.4-0.9-2.4-1.7-3c-0.8-0.6-2-0.9-3.4-0.9c-3.3,0-5,1.8-5.1,5.5c0,0.5,0,1.3,0,2.4s0,1.9,0,2.4
		c0.1,3.6,1.8,5.5,5.1,5.5c1.4,0,2.5-0.3,3.4-0.9c0.8-0.6,1.4-1.6,1.7-3c0.1-0.2,0.1-0.4,0.3-0.5c0.1-0.1,0.3-0.1,0.5-0.1h1.6
		c0.2,0,0.3,0.1,0.4,0.2c0.1,0.1,0.2,0.2,0.2,0.4c-0.1,1.1-0.4,2.2-1,3.1c-0.6,1-1.5,1.8-2.7,2.4c-1.2,0.6-2.6,0.9-4.3,0.9
		C163.7,127.6,161.8,126.9,160.4,125.6z"/>
	<path d="M179.5,125.7c-1.4-1.3-2.1-3.3-2.2-5.9c0-0.6,0-1.4,0-2.4s0-1.9,0-2.4c0.1-2.6,0.8-4.5,2.2-5.9c1.4-1.3,3.3-2,5.7-2
		c2.4,0,4.3,0.7,5.7,2s2.2,3.3,2.2,5.9c0,1.1,0.1,1.9,0.1,2.4c0,0.5,0,1.3-0.1,2.4c-0.1,2.6-0.8,4.6-2.2,5.9c-1.4,1.3-3.3,2-5.8,2
		C182.8,127.6,180.9,127,179.5,125.7z M188.9,123.8c0.9-0.9,1.4-2.3,1.5-4.2c0-1.1,0.1-1.9,0.1-2.3c0-0.4,0-1.2-0.1-2.3
		c-0.1-1.9-0.6-3.3-1.5-4.2c-0.9-0.9-2.1-1.4-3.6-1.4c-1.5,0-2.7,0.5-3.6,1.4c-0.9,0.9-1.4,2.3-1.5,4.2c0,0.6,0,1.3,0,2.3
		c0,1,0,1.7,0,2.3c0.1,1.9,0.6,3.3,1.5,4.2c0.9,0.9,2.1,1.4,3.6,1.4C186.8,125.2,188.1,124.7,188.9,123.8z"/>
	<path d="M197.7,127.1c-0.1-0.1-0.2-0.3-0.2-0.5V108c0-0.2,0.1-0.4,0.2-0.5s0.3-0.2,0.5-0.2h7c2.2,0,3.9,0.5,5.2,1.5
		c1.2,1,1.9,2.5,1.9,4.5c0,1.5-0.4,2.6-1.1,3.6c-0.7,0.9-1.7,1.6-3,1.9l4.4,7.6c0.1,0.1,0.1,0.2,0.1,0.3c0,0.2-0.1,0.3-0.2,0.4
		c-0.1,0.1-0.3,0.2-0.4,0.2h-1.4c-0.3,0-0.5-0.1-0.7-0.2c-0.2-0.1-0.3-0.3-0.4-0.6l-4.2-7.3h-5v7.4c0,0.2-0.1,0.3-0.2,0.5
		c-0.1,0.1-0.3,0.2-0.5,0.2h-1.5C198,127.3,197.8,127.3,197.7,127.1z M205,116.8c2.8,0,4.3-1.2,4.3-3.6c0-2.4-1.4-3.6-4.3-3.6h-4.7
		v7.2H205z"/>
	<path d="M216.5,127.1c-0.1-0.1-0.2-0.3-0.2-0.5V108c0-0.2,0.1-0.4,0.2-0.5s0.3-0.2,0.5-0.2h1.4c0.3,0,0.6,0.2,0.7,0.5l6,11.6
		l6.1-11.6c0-0.1,0.1-0.2,0.2-0.3s0.3-0.1,0.5-0.1h1.4c0.2,0,0.4,0.1,0.5,0.2c0.1,0.1,0.2,0.3,0.2,0.5v18.7c0,0.2-0.1,0.3-0.2,0.5
		c-0.1,0.1-0.3,0.2-0.5,0.2H232c-0.2,0-0.3-0.1-0.5-0.2c-0.1-0.1-0.2-0.3-0.2-0.5v-14.1l-4.8,9.3c-0.2,0.4-0.5,0.6-0.9,0.6h-0.9
		c-0.4,0-0.7-0.2-0.9-0.6l-4.8-9.3v14.1c0,0.2-0.1,0.3-0.2,0.5c-0.1,0.1-0.3,0.2-0.5,0.2h-1.4C216.7,127.3,216.6,127.3,216.5,127.1z
		"/>
</g>
</svg>
